:SAMPLES-PER-SECOND 30
:FULLY-SPECIFIED
:DEGREES
47
root  -18.8349 50.6703 -0.487582 -165.732 76.2005 -155.768
RightUpLeg  -87.735 -13.4468 13.1481
RightLeg  55.4433 8.61396 -2.97718
RightFoot  4.8256 -0.125018 0.71427
RightToes  1.74622e-010 -1.59028e-015 9.93923e-017
Spine  35.2878 -8.2786 5.28803
Spine1  12.6759 -6.0408 6.68882
HEad  -1.89411 -1.9607 7.25648
LeftShoulder1  9.93923e-017 0 1.22299e-017
LeftArm  36.0657 -1.15473 -44.6467
LeftForeArm  -35.9981 -28.8396 19.5958
LeftHand  0.706059 4.32067 -4.07066
RightShoulder  1.98785e-016 -4.96962e-017 1.55301e-017
RightArm  53.8259 -23.451 23.5364
RightForeArm  -46.6992 25.8778 -23.7884
RightHand  0.911984 -10.469 1.48246
LeftUpLeg  5.91597 -5.85401 12.377
LeftLeg  63.0248 -16.0566 -8.00503
LeftFoot  39.06 4.33636 -8.5263
LeftToes  -5.36576e-011 -1.15168e-011 3.25213e-012
48
root  -16.762 51.7102 0.0535668 179.563 74.529 -170.97
RightUpLeg  -82.2854 -17.4569 11.0484
RightLeg  42.6162 10.1284 0.0280161
RightFoot  11.4087 -0.804779 3.7185
RightToes  1.74622e-010 -1.59028e-015 9.93923e-017
Spine  36.0846 -7.81428 0.668588
Spine1  15.4943 -7.13574 7.12025
HEad  -2.07207 -1.09047 8.85668
LeftShoulder1  9.93923e-017 0 1.22299e-017
LeftArm  39.7305 3.52304 -47.8315
LeftForeArm  -36.6782 -23.2627 11.4518
LeftHand  0.578119 3.33355 -3.29356
RightShoulder  1.98785e-016 -4.96962e-017 1.55301e-017
RightArm  52.667 -29.446 23.813
RightForeArm  -48.6828 26.5233 -24.1047
RightHand  0.856511 -10.2 2.47086
LeftUpLeg  -3.69072 -8.15977 12.5429
LeftLeg  86.8304 -13.0986 -10.0771
LeftFoot  40.9257 4.60795 -8.71341
LeftToes  -5.36576e-011 -1.15168e-011 3.25213e-012
49
root  -14.8694 52.0538 0.628461 167.216 71.0975 176.871
RightUpLeg  -74.4639 -21.4879 6.00216
RightLeg  31.1057 9.36547 -0.0964093
RightFoot  15.7091 -1.3365 5.24353
RightToes  1.74622e-010 -1.59028e-015 9.93923e-017
Spine  38.2592 -6.78126 -3.37664
Spine1  17.9585 -8.14336 8.16265
HEad  -2.81442 -1.72917 11.8452
LeftShoulder1  9.93923e-017 0 1.22299e-017
LeftArm  32.9505 5.2142 -51.5487
LeftForeArm  -24.6764 -16.4799 -0.872346
LeftHand  0.546258 3.11762 -3.08655
RightShoulder  1.98785e-016 -4.96962e-017 1.55301e-017
RightArm  53.772 -37.2975 24.5742
RightForeArm  -49.6671 26.5764 -24.0845
RightHand  0.86239 -10.3745 2.67187
LeftUpLeg  -15.7487 -13.0085 12.4055
LeftLeg  109.714 -7.15292 -16.8592
LeftFoot  41.523 4.41834 -8.23389
LeftToes  -5.36576e-011 -1.15168e-011 3.25213e-012
50
root  -12.7877 51.9698 1.03014 161.105 69.4776 172.132
RightUpLeg  -64.1547 -22.427 0.499861
RightLeg  23.6262 5.79469 -1.67543
RightFoot  18.882 -1.71052 5.98912
RightToes  1.74622e-010 -1.59028e-015 9.93923e-017
Spine  40.3788 -5.62335 -4.25461
Spine1  20.1327 -7.51207 6.75228
HEad  -2.79149 -3.55033 14.1918
LeftShoulder1  9.93923e-017 0 1.22299e-017
LeftArm  28.92 7.03534 -55.5806
LeftForeArm  -16.6403 -10.9836 -6.40022
LeftHand  0.622445 3.92114 -2.48376
RightShoulder  1.98785e-016 -4.96962e-017 1.55301e-017
RightArm  57.3971 -45.9026 25.5319
RightForeArm  -49.564 26.0124 -23.7142
RightHand  0.888393 -10.6424 2.45483
LeftUpLeg  -27.4858 -16.2838 14.477
LeftLeg  125.78 2.62464 -22.6885
LeftFoot  40.9875 3.96566 -7.45105
LeftToes  -5.36576e-011 -1.15168e-011 3.25213e-012
51
root  -10.332 51.5373 1.31218 156.927 70.276 169.564
RightUpLeg  -53.4201 -20.0987 -3.70523
RightLeg  20.5083 3.94159 -2.17158
RightFoot  22.4718 -2.43861 7.5766
RightToes  1.74622e-010 -1.59028e-015 9.93923e-017
Spine  40.9491 -4.24155 -3.79479
Spine1  21.7719 -5.57006 3.43989
HEad  -1.40113 -4.87867 15.2669
LeftShoulder1  9.93923e-017 0 1.22299e-017
LeftArm  26.262 12.1408 -58.2221
LeftForeArm  -13.3975 -9.3378 -7.03348
LeftHand  0.695838 4.76423 -1.32892
RightShoulder  1.98785e-016 -4.96962e-017 1.55301e-017
RightArm  63.1025 -53.5857 26.207
RightForeArm  -47.1603 25.306 -23.386
RightHand  0.845182 -10.2894 3.01246
LeftUpLeg  -38.9373 -15.3296 17.5636
LeftLeg  134.878 10.5386 -23.9936
LeftFoot  39.8719 3.46112 -6.63838
LeftToes  -5.36576e-011 -1.15168e-011 3.25213e-012
52
root  -7.59401 50.5537 1.56431 150.041 71.3694 163.907
RightUpLeg  -43.4036 -16.2254 -7.7349
RightLeg  19.0197 5.79755 -1.19735
RightFoot  25.6753 -3.35133 9.52386
RightToes  1.74622e-010 -1.59028e-015 9.93923e-017
Spine  40.3041 -2.03463 -4.65888
Spine1  22.9541 -3.54793 0.846433
HEad  0.527784 -5.64042 16.3179
LeftShoulder1  9.93923e-017 0 1.22299e-017
LeftArm  24.5528 21.1947 -59.1526
LeftForeArm  -14.8733 -10.7245 -6.01544
LeftHand  0.698542 4.76688 -1.40025
RightShoulder  1.98785e-016 -4.96962e-017 1.55301e-017
RightArm  68.5595 -59.9516 25.322
RightForeArm  -42.4987 24.9461 -23.4188
RightHand  0.759609 -9.40988 4.04621
LeftUpLeg  -50.8419 -11.2281 16.055
LeftLeg  139.237 13.5217 -23.0072
LeftFoot  38.7283 3.40706 -6.71084
LeftToes  -5.36576e-011 -1.15168e-011 3.25213e-012
53
root  -4.71743 49.0635 1.78454 140.749 71.7152 156.4
RightUpLeg  -32.7074 -10.7398 -12.102
RightLeg  16.4737 6.07392 -0.983337
RightFoot  27.9315 -4.09425 10.9392
RightToes  1.74622e-010 -1.59028e-015 9.93923e-017
Spine  39.6974 0.656057 -6.22125
Spine1  23.8845 -1.72415 -0.251378
HEad  2.35102 -7.00839 17.7921
LeftShoulder1  9.93923e-017 0 1.22299e-017
LeftArm  29.8544 32.1533 -59.3295
LeftForeArm  -23.4012 -16.1106 -1.51029
LeftHand  0.69326 4.48097 -2.7443
RightShoulder  1.98785e-016 -4.96962e-017 1.55301e-017
RightArm  71.4192 -65.1018 23.5896
RightForeArm  -39.6607 24.4216 -23.242
RightHand  0.72753 -9.05194 4.49872
LeftUpLeg  -61.882 -7.8006 8.2219
LeftLeg  138.997 11.6203 -21.8109
LeftFoot  37.2719 3.55973 -7.26795
LeftToes  -5.36576e-011 -1.15168e-011 3.25213e-012
54
root  -1.75695 47.2413 1.96315 133.289 71.7815 151.922
RightUpLeg  -20.2044 -6.848 -13.8521
RightLeg  12.1716 3.18101 -2.60713
RightFoot  32.1742 -5.17222 12.334
RightToes  1.74622e-010 -1.59028e-015 9.93923e-017
Spine  39.1549 2.79088 -6.88646
Spine1  24.3236 0.0939952 -0.925249
HEad  5.19961 -9.30571 18.5339
LeftShoulder1  9.93923e-017 0 1.22299e-017
LeftArm  35.6026 43.1151 -58.758
LeftForeArm  -29.8764 -20.1121 3.3555
LeftHand  0.745558 4.6615 -4.17246
RightShoulder  1.98785e-016 -4.96962e-017 1.55301e-017
RightArm  71.6826 -68.7413 23.5452
RightForeArm  -41.2944 23.1009 -22.3018
RightHand  0.756126 -9.55637 4.45168
LeftUpLeg  -69.8645 -7.2729 -0.490018
LeftLeg  134.736 6.09958 -20.1797
LeftFoot  35.0482 3.14261 -6.76656
LeftToes  -5.36576e-011 -1.15168e-011 3.25213e-012
55
root  1.26858 45.0598 2.0808 129.855 71.7945 151.224
RightUpLeg  -7.42784 -6.62776 -13.4093
RightLeg  8.25484 1.07736 -3.21285
RightFoot  37.0813 -5.92288 12.7327
RightToes  1.74622e-010 -1.59028e-015 9.93923e-017
Spine  37.3641 4.09989 -6.95912
Spine1  23.6439 1.65396 -1.46024
HEad  9.95657 -12.123 17.8777
LeftShoulder1  9.93923e-017 0 1.22299e-017
LeftArm  37.383 54.8686 -55.813
LeftForeArm  -30.1995 -21.4045 6.616
LeftHand  0.828018 5.18096 -5.94355
RightShoulder  1.98785e-016 -4.96962e-017 1.55301e-017
RightArm  72.7679 -70.8857 24.0149
RightForeArm  -43.7522 21.674 -21.2769
RightHand  0.750173 -9.77998 5.03309
LeftUpLeg  -75.3575 -8.84413 -6.09072
LeftLeg  128.617 -0.525825 -17.0325
LeftFoot  29.5796 1.83102 -4.43407
LeftToes  -5.36576e-011 -1.15168e-011 3.25213e-012
56
root  4.29949 42.4991 2.05629 129.173 72.768 151.527
RightUpLeg  1.37529 -6.44445 -12.1486
RightLeg  9.79928 3.27517 -1.92402
RightFoot  32.1888 -4.28226 10.3337
RightToes  1.74622e-010 -1.59028e-015 9.93923e-017
Spine  33.5933 4.99231 -6.0656
Spine1  21.7774 3.01288 -1.25989
HEad  13.8043 -14.8493 16.2911
LeftShoulder1  9.93923e-017 0 1.22299e-017
LeftArm  46.7699 67.9783 -46.3303
LeftForeArm  -36.1235 -23.6274 12.5678
LeftHand  0.886769 5.56196 -7.53924
RightShoulder  1.98785e-016 -4.96962e-017 1.55301e-017
RightArm  75.8172 -71.6477 22.2877
RightForeArm  -42.8664 21.3557 -21.1314
RightHand  0.682355 -9.0309 6.49702
LeftUpLeg  -78.9743 -10.4099 -8.43483
LeftLeg  122.207 -6.13022 -12.5891
LeftFoot  18.427 0.115371 0.0548992
LeftToes  -5.36576e-011 -1.15168e-011 3.25213e-012
57
root  7.13761 39.8917 1.86159 128.588 76.6927 151.051
RightUpLeg  4.28195 -2.14817 -7.51437
RightLeg  18.599 5.31878 -1.61751
RightFoot  13.0782 -1.14722 3.93337
RightToes  1.74622e-010 -1.59028e-015 9.93923e-017
Spine  29.2248 5.43936 -2.19176
Spine1  20.6167 4.69632 -0.934616
HEad  12.3564 -16.088 13.8786
LeftShoulder1  9.93923e-017 0 1.22299e-017
LeftArm  69.5213 78.2028 -23.9954
LeftForeArm  -45.082 -25.6352 17.2583
LeftHand  0.870977 5.55414 -6.69302
RightShoulder  1.98785e-016 -4.96962e-017 1.55301e-017
RightArm  73.3591 -69.9346 24.8346
RightForeArm  -42.0127 21.4188 -21.5311
RightHand  0.664566 -8.85314 6.72246
LeftUpLeg  -78.2359 -9.51531 -7.70831
LeftLeg  115.082 -9.7792 -8.63453
LeftFoot  6.69143 -0.756785 4.33716
LeftToes  -5.36576e-011 -1.15168e-011 3.25213e-012
58
root  9.52474 37.8343 1.61351 129.56 82.9263 152.689
RightUpLeg  4.16844 4.5941 0.0141377
RightLeg  29.9218 2.69548 -4.53389
RightFoot  -8.14499 0.12896 -2.19821
RightToes  1.74622e-010 -1.59028e-015 9.93923e-017
Spine  26.503 4.84113 4.18895
Spine1  21.9484 6.22387 -1.33734
HEad  6.60467 -14.7918 10.1655
LeftShoulder1  9.93923e-017 0 1.22299e-017
LeftArm  62.6294 82.5177 -12.8415
LeftForeArm  -30.4383 -21.1338 8.3311
LeftHand  0.870084 5.70917 -5.09453
RightShoulder  1.98785e-016 -4.96962e-017 1.55301e-017
RightArm  57.5938 -63.567 37.8903
RightForeArm  -41.9415 20.4794 -18.7323
RightHand  0.867475 -10.639 3.35931
LeftUpLeg  -71.2174 -5.82025 -5.26171
LeftLeg  104.535 -11.9136 -5.8971
LeftFoot  2.07162 -0.710609 5.09909
LeftToes  -5.36576e-011 -1.15168e-011 3.25213e-012
59
root  11.5895 36.7607 1.46295 150.181 87.1817 173.754
RightUpLeg  4.09981 7.48582 5.45023
RightLeg  37.9918 0.864433 -7.65494
RightFoot  -19.0614 -0.101657 -2.83566
RightToes  1.74622e-010 -1.59028e-015 9.93923e-017
Spine  25.1754 3.61031 8.61897
Spine1  24.0398 6.35108 -1.53193
HEad  3.298 -12.2603 5.89861
LeftShoulder1  9.93923e-017 0 1.22299e-017
LeftArm  -7.1501 80.9966 -58.3944
LeftForeArm  -5.59747 -7.63197 -1.76696
LeftHand  0.947903 6.57928 -6.99605
RightShoulder  1.98785e-016 -4.96962e-017 1.55301e-017
RightArm  28.893 -52.8961 52.6099
RightForeArm  -29.8311 17.8567 -9.73279
RightHand  1.28181 -12.6998 -1.95658
LeftUpLeg  -59.5523 -2.15636 -3.70959
LeftLeg  87.3141 -12.8247 -2.24359
LeftFoot  4.70261 -0.395033 2.68939
LeftToes  -5.36576e-011 -1.15168e-011 3.25213e-012
60
root  13.761 36.5085 1.47173 169.282 87.2926 -168.947
RightUpLeg  4.67341 5.28315 5.96536
RightLeg  40.4206 2.28184 -7.1865
RightFoot  -21.6158 -0.0958371 -1.24845
RightToes  1.74622e-010 -1.59028e-015 9.93923e-017
Spine  22.3686 3.02139 8.65749
Spine1  24.0394 5.38281 -0.961915
HEad  6.35474 -10.9594 3.33486
LeftShoulder1  9.93923e-017 0 1.22299e-017
LeftArm  -31.901 71.892 -77.6371
LeftForeArm  1.36208 0.509086 -3.38912
LeftHand  1.02511 7.42933 -9.67415
RightShoulder  1.98785e-016 -4.96962e-017 1.55301e-017
RightArm  8.63595 -44.8354 65.7389
RightForeArm  -20.4773 16.6388 -5.89566
RightHand  1.4375 -12.8358 -4.39613
LeftUpLeg  -46.8779 -1.20528 -4.11043
LeftLeg  64.5043 -11.097 1.9588
LeftFoot  9.71152 -0.0516324 0.398448
LeftToes  -5.36576e-011 -1.15168e-011 3.25213e-012
